{
	"accessors" : 
	[
		{
			"bufferView" : 2,
			"byteOffset" : 0,
			"componentType" : 5126,
			"count" : 3982,
			"max" : 
			[
				1,
				0.5542271137237549,
				0.7893137335777283,
				1
			],
			"min" : 
			[
				0,
				0.09387587010860443,
				0.01188133470714092,
				1
			],
			"name" : "accessor_color_m0-PolyPaper21_-214160",
			"type" : "VEC4"
		},
		{
			"bufferView" : 0,
			"byteOffset" : 0,
			"componentType" : 5123,
			"count" : 5832,
			"max" : 
			[
				3981
			],
			"min" : 
			[
				0
			],
			"name" : "accessor_indices_0_m0-PolyPaper21_-214160",
			"type" : "SCALAR"
		},
		{
			"bufferView" : 1,
			"byteOffset" : 47784,
			"componentType" : 5126,
			"count" : 3982,
			"max" : 
			[
				0.9988194,
				0.9999716,
				0.9988351
			],
			"min" : 
			[
				-0.9988437999999999,
				-0.9999524,
				-0.9978856
			],
			"name" : "accessor_normal_m0-PolyPaper21_-214160",
			"type" : "VEC3"
		},
		{
			"bufferView" : 1,
			"byteOffset" : 0,
			"componentType" : 5126,
			"count" : 3982,
			"max" : 
			[
				1.818114,
				2.407632,
				1.20545
			],
			"min" : 
			[
				-2.057909,
				0.5449315,
				-0.9522681
			],
			"name" : "accessor_position_m0-PolyPaper21_-214160",
			"type" : "VEC3"
		}
	],
	"asset" : 
	{
		"copyright" : "Unknown",
		"generator" : "glTF 1-to-2 Upgrader for Google Blocks",
		"version" : "2.0"
	},
	"bufferViews" : 
	[
		{
			"buffer" : 0,
			"byteLength" : 11664,
			"byteOffset" : 0,
			"name" : "ushortBufferView",
			"target" : 34963
		},
		{
			"buffer" : 0,
			"byteLength" : 95568,
			"byteOffset" : 11664,
			"byteStride" : 12,
			"name" : "vec3BufferView",
			"target" : 34962
		},
		{
			"buffer" : 0,
			"byteLength" : 63712,
			"byteOffset" : 107232,
			"byteStride" : 16,
			"name" : "vec4BufferView",
			"target" : 34962
		}
	],
	"buffers" : 
	[
		{
			"byteLength" : 170944,
			"name" : "model",
			"uri" : "model.bin"
		}
	],
	"materials" : 
	[
		{
			"alphaMode" : "OPAQUE",
			"doubleSided" : false,
			"name" : "BlocksPaper",
			"pbrMetallicRoughness" : 
			{
				"baseColorFactor" : 
				[
					1,
					1,
					1,
					1
				],
				"metallicFactor" : 0,
				"roughnessFactor" : 0.6
			}
		},
		{
			"alphaMode" : "BLEND",
			"doubleSided" : false,
			"name" : "BlocksGlass",
			"pbrMetallicRoughness" : 
			{
				"baseColorFactor" : 
				[
					0.2,
					0.2,
					1,
					0.3
				],
				"metallicFactor" : 1,
				"roughnessFactor" : 0.4
			}
		},
		{
			"alphaMode" : "OPAQUE",
			"doubleSided" : true,
			"name" : "BlocksGem",
			"pbrMetallicRoughness" : 
			{
				"baseColorFactor" : 
				[
					1,
					0.4,
					1,
					1
				],
				"metallicFactor" : 0,
				"roughnessFactor" : 0.1
			}
		}
	],
	"meshes" : 
	[
		{
			"name" : "mesh_m0-PolyPaper21_-214160",
			"primitives" : 
			[
				{
					"attributes" : 
					{
						"COLOR_0" : 0,
						"NORMAL" : 2,
						"POSITION" : 3
					},
					"indices" : 1,
					"material" : 0,
					"mode" : 4
				}
			]
		}
	],
	"nodes" : 
	[
		{
			"matrix" : 
			[
				1,
				0,
				0,
				0,
				0,
				1,
				0,
				0,
				0,
				0,
				1,
				0,
				0,
				0,
				0,
				1
			],
			"mesh" : 0,
			"name" : "node_MeshObject1413026816-PolyPaper21"
		}
	],
	"scene" : 0,
	"scenes" : 
	[
		{
			"extras" : {},
			"name" : "defaultScene",
			"nodes" : 
			[
				0
			]
		}
	]
}